{"title":"How I Met Your Mother Season 8 DVDRip XviD - DiGrX","uid":9469502,"size":4715478593,"categoryP":"video","categoryS":"tv_shows","magnet":"?xt=urn:btih:37c8d6ea72415bab058cbaf525f6763640a3b9d2&amp;dn=How+I+Met+Your+Mother+Season+8+DVDRip+XviD+-+DiGrX&amp;tr=udp%3A%2F%2Ftracker.openbittorrent.com%3A80&amp;tr=udp%3A%2F%2Fopen.demonii.com%3A1337&amp;tr=udp%3A%2F%2Ftracker.coppersurfer.tk%3A6969&amp;tr=udp%3A%2F%2Fexodus.desync.com%3A6969","seeders":4,"leechers":0,"uploader":"dimigeor","files":24,"time":1389526082,"description":"A DiGrX release\n\n\n\nHow I Met Your Mother Season 8 DVDRip XviD - DiGrX\n\nAll episodes in XviD from DVDip\n\nCodec ID, Format: XVID, MPEG-4\nAspect ratio, Dimension: 16:9, 720x406\nAudio: MP3, 2 Channels\n\n\n-----------------------------------------------------------------------------------\n\n\nEpisode 1 example:\n\nGeneral\nComplete name                            : 8x01 How I Met Your Mother - Farhampton DVDRip.avi\nFormat                                   : AVI\nFormat/Info                              : Audio Video Interleave\nFile size                                : 188 MiB\nDuration                                 : 21mn 39s\nOverall bit rate mode                    : Variable\nOverall bit rate                         : 1 215 Kbps\nWriting application                      : MEncoder r33883\nWriting library                          : MPlayer\n\nVideo\nID                                       : 0\nFormat                                   : MPEG-4 Visual\nFormat profile                           : Simple@L3\nFormat settings, BVOP                    : No\nFormat settings, QPel                    : No\nFormat settings, GMC                     : No warppoints\nFormat settings, Matrix                  : Default (H.263)\nCodec ID                                 : XVID\nCodec ID/Hint                            : XviD\nDuration                                 : 21mn 39s\nBit rate                                 : 1 079 Kbps\nWidth                                    : 720 pixels\nHeight                                   : 406 pixels\nDisplay aspect ratio                     : 16:9\nFrame rate                               : 23.976 fps\nColor space                              : YUV\nChroma subsampling                       : 4:2:0\nBit depth                                : 8 bits\nScan type                                : Progressive\nCompression mode                         : Lossy\nBits/(Pixel*Frame)                       : 0.154\nStream size                              : 167 MiB (89%)\nWriting library                          : XviD 63\n\nAudio\nID                                       : 1\nFormat                                   : MPEG Audio\nFormat version                           : Version 1\nFormat profile                           : Layer 3\nMode                                     : Joint stereo\nCodec ID                                 : 55\nCodec ID/Hint                            : MP3\nDuration                                 : 21mn 39s\nBit rate mode                            : Variable\nBit rate                                 : 124 Kbps\nChannel(s)                               : 2 channels\nSampling rate                            : 48.0 KHz\nCompression mode                         : Lossy\nStream size                              : 19.2 MiB (10%)\nAlignment                                : Aligned on interleaves\nInterleave, duration                     : 24 ms (0.58 video frame)\nInterleave, preload duration             : 479 ms\n\n","torrent":{"xt":"urn:btih:37c8d6ea72415bab058cbaf525f6763640a3b9d2","amp;dn":"How+I+Met+Your+Mother+Season+8+DVDRip+XviD+-+DiGrX","amp;tr":["udp%3A%2F%2Ftracker.openbittorrent.com%3A80","udp%3A%2F%2Fopen.demonii.com%3A1337","udp%3A%2F%2Ftracker.coppersurfer.tk%3A6969","udp%3A%2F%2Fexodus.desync.com%3A6969"],"infoHash":"37c8d6ea72415bab058cbaf525f6763640a3b9d2","infoHashBuffer":{"type":"Buffer","data":[55,200,214,234,114,65,91,171,5,140,186,245,37,246,118,54,64,163,185,210]},"announce":[],"urlList":[]}}